<?xml version="1.0" encoding="UTF-8"?>
<svg width="1849px" height="2493px" viewBox="0 0 1849 2493" version="1.1" xmlns="http://www.w3.org/2000/svg" xmlns:xlink="http://www.w3.org/1999/xlink">
    <title>grunt</title>
    <g id="Page-1" stroke="none" stroke-width="1" fill="none" fill-rule="evenodd">
        <g id="grunt" fill-rule="nonzero">
            <path d="M119.673516,605.756953 C119.673516,605.756953 162.359063,770.381484 168.447656,825.266016 C174.550781,880.136016 58.7003906,1002.08227 58.7003906,1063.05539 C58.7003906,1124.03578 83.0547656,1233.78305 217.214531,1288.66758 C351.374297,1343.54484 369.647344,1483.77141 369.647344,1569.15703 C369.647344,1654.51359 320.873203,1819.12359 320.873203,1819.12359 C320.873203,1819.12359 290.401172,2227.64062 455.011172,2300.80547 C619.621172,2373.96305 583.053281,2373.96305 619.621172,2373.96305 C656.196328,2373.96305 924.486797,2483.74664 1083.0082,2441.05383 C1241.54414,2398.37555 1284.19336,2349.60141 1284.19336,2349.60141 C1284.19336,2349.60141 1442.73656,2361.78586 1491.5107,2221.53023 C1540.30664,2081.30367 1570.77867,1788.6443 1552.47656,1654.49906 C1534.18172,1520.3393 1509.80555,1343.55211 1619.53828,1282.57172 C1729.32187,1221.59133 1845.15047,1148.44828 1826.85562,1087.46063 C1808.56078,1026.48023 1711.0343,941.116406 1711.0343,941.116406 C1711.0343,941.116406 1686.63633,788.698125 1704.91664,752.108438 C1723.19695,715.526016 1832.95875,624.044531 1771.97836,556.990078 C1711.04156,489.928359 1601.25797,489.928359 1601.25797,489.928359 L1461.03141,502.105547 C1461.03141,502.105547 1223.24203,288.714141 912.280547,300.905859 C601.333594,313.097578 406.207969,502.105547 406.207969,502.105547 C406.207969,502.105547 302.563828,465.523125 211.096875,502.105547 C119.629922,538.7025 101.393203,502.098281 119.673516,605.756953 Z" id="Path" fill="#FBA919"></path>
            <path d="M676.808906,1513.575 C676.808906,1513.575 556.061484,1698.19453 467.493516,1829.21555 C453.790547,1849.48664 556.061484,1850.88891 556.061484,1850.88891 L676.808906,1513.56773 L676.808906,1513.575 Z M734.294531,1130.80008 C734.294531,1130.80008 697.89375,1221.60586 677.956875,1269.74062 C656.319844,1322.07492 573.796875,1348.10766 573.796875,1348.10766 C573.796875,1348.10766 616.569609,1303.24242 616.569609,1189.58625 C616.569609,1141.90922 678.13125,1122.94594 678.13125,1122.94594 L734.294531,1130.79281 L734.294531,1130.80008 Z" id="Shape" fill="#E78724"></path>
            <path d="M697.530469,1182.13898 C697.530469,1182.13898 622.956094,1270.91039 484.502344,1221.19172 C346.012266,1171.49484 331.815234,993.9375 331.815234,944.226094 C331.815234,894.514688 594.569297,993.9375 630.090937,1015.24758 C665.605312,1036.55766 733.030312,1121.76164 697.523203,1182.13898 L697.530469,1182.13898 Z M174.499922,233.611641 C174.499922,233.611641 302.324063,208.734141 387.528047,276.21 C472.775625,343.671328 497.602266,396.942891 497.602266,396.942891 L353.968125,510.795234 C353.968125,510.795234 284.566875,478.623047 263.264063,386.291484 C241.96125,293.967188 256.165547,251.368828 174.499922,233.611641 Z" id="Shape" fill="#E78724"></path>
            <path d="M660.243281,925.735078 C605.213438,847.615078 514.516641,813.539297 442.100156,807.893906 C318.628125,798.237891 260.009062,841.889766 260.009062,841.889766 C260.009062,841.889766 462.225937,850.448672 520.510781,926.999297 C629.015625,1069.4782 787.311797,1081.05234 812.625234,1049.7593 C783.352031,1051.21969 751.158047,1036.7175 716.689922,1004.13117 C695.161875,983.743828 677.709844,950.532656 660.243281,925.735078 L660.243281,925.735078 Z M318.875156,1201.95961 C318.875156,1201.95961 94.5126562,1124.82773 137.154609,1046.72953 C179.752969,968.602266 145.844297,926.032969 145.844297,926.032969 C145.844297,926.032969 20.563125,1019.55609 52.4810156,1118.97891 C72.1054688,1179.99562 105.01875,1224.17789 285.758438,1308.88055 C372.451875,1469.90859 303.660937,1759.74891 307.780547,1761.10758 C314.646563,1763.38898 429.501563,1704.34125 421.661953,1433.17359 C419.264297,1349.90953 412.608984,1236.23156 318.875156,1201.96687 L318.875156,1201.95961 Z M612.885938,372.552188 C518.810625,420.345469 389.925703,486.905859 389.925703,486.905859 L440.654297,512.284687 C435.808125,520.124297 433.475859,524.803359 433.475859,524.803359 L485.541328,548.474766 C485.541328,548.474766 612.638906,640.544766 690.504609,699.745078 C664.544531,619.779609 588.328125,494.17875 588.328125,494.17875 C588.328125,494.17875 566.734688,436.467891 612.885937,372.544922 L612.885938,372.552188 Z M925.424062,2320.78594 C636.252187,2320.78594 538.311563,2173.99125 538.311563,2173.99125 L583.50375,2284.03641 C600.577969,2331.64078 782.799844,2479.78687 924.988125,2479.78687" id="Shape" fill="#E78724"></path>
            <path d="M569.996953,2074.80094 C569.996953,2074.80094 596.603672,2237.39109 703.132266,2237.39109 C793.654688,2237.39109 820.326797,2100.04898 820.326797,2071.66219 L569.996953,2074.80094 L569.996953,2074.80094 Z M392.722969,1829.58609 C402.190078,1803.53156 435.328594,1698.19453 445.972734,1602.33188 C458.731172,1487.5132 454.081172,1319.59008 454.081172,1319.59008 C454.081172,1319.59008 425.658047,1429.6643 400.802344,1447.45055 C375.961172,1465.1932 329.788125,1585.91156 329.788125,1585.91156 C329.788125,1585.91156 305.055937,1765.63406 293.285625,1826.04047 C325.864687,1832.55773 353.285156,1813.36922 392.722969,1829.58609 L392.722969,1829.58609 Z M135.47625,1117.20609 C135.47625,1117.20609 195.824531,1095.88148 213.59625,964.518984 C231.346172,833.134688 192.278906,719.507578 192.278906,719.507578 C192.278906,719.507578 195.824531,900.596016 174.528984,936.117656 C153.211641,971.610234 135.47625,982.268906 110.606016,1028.44195 C85.7357812,1074.62227 121.250156,1102.99453 135.47625,1117.20609 L135.47625,1117.20609 Z" id="Shape" fill="#E78724"></path>
            <path d="M207.536719,264.686719 L195.214219,256.883438 C158.886094,258.111328 207.536719,264.686719 207.536719,264.686719 Z" id="Path" fill="#FDC168"></path>
            <path d="M662.001562,333.652031 C662.001562,333.652031 605.213437,324.192187 576.790313,281.586563 C548.367188,238.973672 467.900391,153.740625 339.61125,152.796094 C211.329375,151.837031 84.4134375,186.893672 84.4134375,186.893672 L195.199687,256.897969 C206.919141,256.512891 227.408203,256.672734 261.287813,257.806172 C400.330078,262.427109 421.734609,399.950859 421.734609,399.950859 L911.742891,332.475" id="Path" fill="#FBA919"></path>
            <path d="M709.366172,1093.25133 C709.366172,1093.25133 643.074609,1159.53562 541.268672,1138.21828 C439.47,1116.92273 377.908359,1071.94125 373.178438,993.813984 C368.448516,915.693984 394.503047,884.924062 394.503047,884.924062 C394.503047,884.924062 508.115625,920.452969 562.593281,967.803047 C617.041875,1015.13859 657.278906,1090.89 709.358906,1093.25133 L709.366172,1093.25133 Z" id="Path" fill="#FFFFFF"></path>
            <path d="M629.139141,1069.57266 C629.139141,1069.57266 571.64625,1095.83063 507.389063,1074.44062 C423.274922,1046.38078 417.673125,958.902656 417.673125,958.902656 C417.673125,958.902656 366.065391,1110.34008 510.745781,1139.48977 C626.785078,1162.86328 695.416172,1095.61992 695.416172,1095.61992 L629.139141,1069.56539 L629.139141,1069.57266 Z" id="Path" fill="#C9C9C9"></path>
            <path d="M669.99375,301.523438 C663.810703,171.657656 770.273906,68.2242187 807.16875,63.8139844 C809.203125,85.8215625 805.105312,171.664922 841.985625,198.060937 C852.724219,127.947656 889.030547,50.6414062 1032.40312,0 C1001.69859,81.4403906 1028.29805,149.657344 1040.97656,181.277344 C1138.87359,92.41875 1204.8382,107.095312 1204.8382,107.095312 C1204.8382,107.095312 1136.81016,224.47875 1163.42414,301.501641 C966.888984,286.09125 670.952812,322.383047 669.99375,301.530703 L669.99375,301.523438 Z M253.339219,499.351875 C206.439609,460.444453 241.394531,424.341563 237.689063,380.1375 C235.676484,356.618672 233.816484,334.429453 226.064063,322.186875 C182.90625,254.049844 81.1075781,233.371875 80.0903906,233.153906 L32.3116406,223.795781 L63.9389063,186.799219 C68.0367188,182.003906 197.917031,58.0741406 398.920547,122.970703 C539.524922,168.315469 643.612266,322.085156 647.484844,328.297266 L576.986484,361.450313 C576.158203,360.1425 493.867734,215.600156 373.243828,176.707266 C275.739141,145.247109 185.863359,175.181484 147.377344,194.798672 C188.297344,211.131797 241.794141,240.884531 274.031719,291.780234 C289.238672,315.822188 291.810703,346.083516 294.288281,375.393047 C297.557812,414.191484 300.609375,450.8175 329.163281,474.539766 L253.339219,499.351875 L253.339219,499.351875 Z M128.094375,1067.26945 C128.094375,1067.26945 187.171172,994.002891 204.674062,851.451328 C211.547344,795.295312 199.333828,684.545391 179.796563,641.939766 C183.349453,746.688281 156.720938,851.451328 156.720938,851.451328 C156.720938,851.451328 138.767578,1045.95937 128.094375,1067.26945 Z" id="Shape" fill="#463014"></path>
            <path d="M439.629844,425.35875 C439.593516,425.206172 420.666563,342.494297 368.194219,300.73875 C294.172031,241.858125 203.794922,273.180234 202.923047,273.456328 L189.801328,232.914141 C194.175234,231.497344 297.477891,198.947344 392.679375,265.871016 C488.454844,333.1725 499.949062,394.181953 500.944453,400.917188 L439.622578,425.35875 L439.629844,425.35875 Z M313.651172,1014.72445 C313.651172,1014.72445 282.656016,970.353281 288.22875,921.557344 C291.004219,897.457266 302.17875,872.717813 322.108359,863.940938 C359.163047,847.665937 375.583359,889.66125 375.583359,889.66125 C375.583359,889.66125 323.437969,902.528672 313.651172,1014.72445 L313.651172,1014.72445 Z" id="Shape" fill="#463014"></path>
            <path d="M653.980312,1082.36016 C655.273594,1084.77234 655.942031,1086.13102 655.942031,1086.13102 C655.942031,1086.13102 559.258359,1158.68555 460.184297,1085.0557 C407.145234,1045.60336 412.158516,948.033281 428.404453,906.655547 C470.661328,916.231641 506.495391,933.4875 536.444297,953.642344 C498.590391,919.857188 465.459141,894.986953 465.546328,894.412969 L422.519297,882.235781 L338.891953,853.558359 C337.823906,859.937578 307.322812,1002.91055 395.367656,1100.32805 C434.384063,1143.52945 617.3325,1240.26398 704.200313,1074.85477 L653.980312,1082.35289 L653.980312,1082.36016 Z" id="Path" fill="#463014"></path>
            <path d="M644.927344,1092.98977 C699.354141,1175.83242 836.688984,1128.48961 834.327656,1040.90977 C834.327656,1040.90977 742.562813,1091.55117 661.485703,998.304141 C614.150156,943.870078 462.480234,793.769531 256.790391,843.648047 C398.833359,874.890234 586.889531,1004.6543 644.920078,1092.98977 L644.927344,1092.98977 Z" id="Path" fill="#463014"></path>
            <path d="M237.580078,1326.79758 C250.672734,1334.36109 296.853047,1382.1907 296.882109,1453.71352 C296.882109,1489.58391 293.314687,1669.77141 275.5575,1779.85289 C302.258672,1797.2032 320.858672,1800.89414 347.450859,1818.57867 C360.761484,1691.08875 370.308516,1506.30938 365.861953,1431.7132 C360.776016,1346.68359 315.242344,1289.61937 273.021797,1265.2868 C259.798359,1257.67969 245.986406,1250.20336 232.072734,1242.68344 C159.757969,1203.60891 84.9728906,1163.18297 84.9728906,1094.1668 C84.9728906,1040.16867 105.970547,1023.28336 128.188828,1005.38086 L130.586484,1003.44094 C145.335703,991.525313 162.017578,978.01125 171.906094,955.829297 C198.883359,895.175859 203.293594,740.657813 171.906094,701.437969 C156.255937,681.893438 114.333281,616.168594 126.386953,572.000859 C130.978828,555.144609 141.593906,542.647734 158.878828,533.798203 C177.166406,524.425547 201.876797,519.681094 232.290703,519.681094 C292.028672,519.681094 358.291172,537.866953 392.475937,548.692734 C514.632891,587.41125 662.037891,699.040313 704.2875,732.331406 C705.500859,733.261406 706.212891,733.806328 706.343672,733.893516 L733.379063,752.696953 L716.471953,724.404609 C715.425703,722.639063 608.337656,546.549375 416.852109,481.987031 C379.60125,469.424766 306.414609,448.347187 234.484922,448.347187 C191.668594,448.347187 155.325938,455.830781 126.561328,470.558203 C91.4901562,488.497031 67.7460937,517.116328 57.879375,553.299141 C33.699375,641.990625 112.451484,740.737734 115.1325,743.898281 C124.31625,760.289531 128.210625,879.351328 106.995,926.999297 C104.08875,933.581953 96.0820312,940.041094 85.9610156,948.214922 C82.7859375,950.779687 79.2403125,953.446172 75.4839844,956.294297 C45.556875,978.883125 0.3065625,1013.00977 0.3065625,1091.67469 C0.3065625,1199.30766 109.392656,1257.66516 197.059688,1304.58656 C211.445625,1312.32445 225.170391,1319.6482 237.580078,1326.79758 Z" id="Path" fill="#463014"></path>
            <path d="M253.339219,499.351875 C206.439609,460.444453 241.394531,424.341563 237.689063,380.1375 C235.676484,356.618672 233.816484,334.429453 226.064063,322.186875 C182.90625,254.049844 81.1075781,233.371875 80.0903906,233.153906 L32.3116406,223.795781 L63.9389063,186.799219 C68.0367188,182.003906 197.917031,58.0741406 398.920547,122.970703 C539.524922,168.315469 643.612266,322.085156 647.484844,328.297266 L576.986484,361.450313 C576.158203,360.1425 493.867734,215.600156 373.243828,176.707266 C275.739141,145.247109 185.863359,175.181484 147.377344,194.798672 C188.297344,211.131797 241.794141,240.884531 274.031719,291.780234 C289.238672,315.822188 291.810703,346.083516 294.288281,375.393047 C297.557812,414.191484 300.609375,450.8175 329.163281,474.539766 L253.339219,499.351875 L253.339219,499.351875 Z" id="Path" fill="#463014"></path>
            <path d="M251.813437,507.322266 L248.783672,504.808359 C214.010391,475.949297 220.178906,447.526172 226.15125,420.018516 C228.868594,407.325469 231.73125,394.20375 230.56875,380.740547 C228.672422,358.108125 226.84875,336.754453 220.033594,325.979531 C178.946484,261.0975 79.6399219,240.317812 78.6590625,240.114375 L18.99375,228.409453 L58.5478125,182.16375 C59.274375,181.291875 142.669219,97.1123437 283.905703,97.1123437 C322.413516,97.1123437 361.858594,103.520625 401.100234,116.199141 C547.851328,163.512891 652.534453,322.949766 653.522578,324.526406 L657.758437,331.297969 L574.363594,370.517812 L571.021406,365.213906 C562.041094,349.9125 482.969297,219.509062 371.107734,183.427969 C343.636406,174.563906 314.690156,170.081016 285.104531,170.081016 C231.513281,170.081016 188.057578,184.684922 164.931094,194.493516 C203.576953,211.894687 250.4475,241.182422 280.09125,287.95125 C296.220937,313.424531 298.836562,344.557734 301.394063,374.644687 C304.532813,412.048125 307.497188,447.228281 333.740625,469.010625 L343.643672,477.220781 L251.820703,507.322266 L251.813437,507.322266 Z" id="Path" fill="#463014"></path>
            <path d="M439.629844,425.35875 C439.593516,425.206172 420.666563,342.494297 368.194219,300.73875 C294.172031,241.858125 203.794922,273.180234 202.923047,273.456328 L189.801328,232.914141 C194.175234,231.497344 297.477891,198.947344 392.679375,265.871016 C488.454844,333.1725 499.949062,394.181953 500.944453,400.917187 L439.622578,425.35875 L439.629844,425.35875 Z" id="Path" fill="#463014"></path>
            <path d="M434.536641,435.029297 L432.691172,426.891797 C432.502266,426.092578 413.938594,346.214297 363.754922,306.311484 C335.150156,283.541016 300.660234,271.974141 261.295078,271.974141 C230.56875,271.974141 207.732891,279.312422 205.240781,280.177031 L198.461953,282.429375 L180.857344,228.351328 L187.607109,226.171641 C190.629609,225.205313 218.050078,216.653672 256.833984,216.653672 C307.998516,216.653672 356.373047,231.671719 396.784453,260.05125 C494.964844,329.038359 506.953125,392.837813 507.970312,399.878203 L508.834922,405.443672 L434.536641,435.029297 Z M261.302344,257.798906 C303.355781,257.798906 341.878125,270.731719 372.611719,295.173281 C417.171797,330.665859 438.133125,393.317344 444.46875,415.782656 L492.770625,396.52875 C488.396719,379.476328 469.142813,328.297266 388.610625,271.683516 C350.081016,244.604531 305.760703,230.887031 256.84125,230.887031 C229.994766,230.887031 209.142422,235.159219 198.839766,237.760312 L207.55125,264.686719 C217.650469,261.969375 237.093281,257.798906 261.302344,257.798906 Z M698.678437,2198.38922 C677.695312,2198.38922 656.283516,2190.77484 641.447109,2177.92922 C630.083672,2168.13516 591.663047,2132.84602 574.719609,2089.61555 C568.398516,2073.44953 569.815313,2060.51672 578.991797,2051.20945 C585.312891,2044.83023 598.441875,2037.20859 625.084922,2037.20859 L644.040937,2037.17953 C666.629766,2037.15047 704.658047,2037.15047 737.164453,2037.15047 L768.333984,2037.15047 C788.605078,2037.15047 803.136328,2041.53891 811.484531,2050.08328 C822.215859,2061.10523 818.779219,2075.12789 815.77125,2082.50977 C810.554531,2095.44258 788.939297,2137.51781 752.349609,2176.63594 C739.249687,2190.65859 720.184687,2198.38922 698.678437,2198.38922 L698.678437,2198.38922 Z M720.671484,1097.85773 L644.920078,1092.98977 C644.920078,1092.98977 664.282969,1127.12367 676.830703,1171.26961 C690.998672,1221.20625 663.876094,1294.18945 663.876094,1294.18945 C663.876094,1294.18945 764.882812,1179.82852 720.671484,1097.85773 L720.671484,1097.85773 Z M626.109375,2398.41188 C356.489297,2377.69031 261.629297,2122.92117 261.629297,2069.86031 L332.040469,2069.88938 L296.838516,2069.86031 L332.040469,2069.86031 C332.396484,2092.79789 404.042813,2310.73031 631.500469,2328.22594 L626.109375,2398.41188 L626.109375,2398.41188 Z" id="Shape" fill="#463014"></path>
            <path d="M550.343438,1941.95625 C546.129375,1917.60914 545.693437,1894.51172 550.830234,1871.82117 C530.341172,1856.41805 493.577109,1850.7 465.989531,1841.75602 C443.429766,1827.47906 327.98625,1856.38898 244.242656,1755.03352 C139.305234,1628.11758 161.385469,1552.34437 161.385469,1552.34437 C134.480859,1582.23516 108.404531,1570.84266 67.3973437,1710.22641 C26.3247656,1849.63922 86.6730469,1946.82422 199.144922,2044.3943 C252.278437,2090.48016 327.390469,2109.4725 392.003672,2116.73812 C370.359375,2095.01391 428.971172,2092.83422 469.368047,2077.72172 C466.149375,2045.09906 471.547734,2013.43547 495.865781,1987.94039 C510.527812,1972.56633 529.396641,1963.38258 548.9775,1956.05883 C550.067344,1953.53039 550.990078,1951.19086 552.029063,1948.76414 C551.339848,1946.52828 550.777082,1944.25539 550.343437,1941.95625 L550.343438,1941.95625 Z" id="Path" fill="#FFFFFF"></path>
            <path d="M468.830391,2076.87164 C466.490859,2070.02016 464.725312,2063.04516 462.996094,2056.0193 C461.128828,2048.35406 451.828828,2026.61531 463.286719,2051.43469 C460.344141,2045.07727 458.41875,2038.53094 457.001953,2031.93375 C274.852734,2031.70125 116.389453,1906.63805 147.006797,1643.71687 C123.161016,1612.06055 89.7682031,1707.55266 89.7682031,1707.55266 C89.7682031,1707.55266 -1.42265625,1972.32656 234.085312,2074.94625 C312.554062,2109.16734 381.904453,2133.70336 398.266641,2123.80031 C432.349687,2130.72445 463.112344,2106.96586 474.650156,2091.3375 C472.492266,2086.54219 470.516016,2081.73234 468.830391,2076.87164 Z" id="Path" fill="#C9C9C9"></path>
            <path d="M547.059375,1903.83352 C547.342734,1881.6443 551.876484,1860.14531 562.607813,1838.73352 C563.356172,1837.25859 564.220781,1835.8418 565.027266,1834.4032 C494.935781,1833.80016 414.214688,1827.09398 345.474609,1799.57906 C269.919375,1769.35406 175.408125,1665.96422 159.169453,1544.48297 C159.169453,1544.48297 16.8794531,1654.28109 58.6858594,1889.30227 C97.9347656,2109.98109 282.605156,2181.92531 493.213828,2194.09523 C493.330078,2192.67117 469.527891,2143.51195 477.047813,2113.41047 C357.455625,2122.10016 223.724531,2075.89805 159.169453,1969.67461 C100.063594,1872.44602 116.64375,1706.45555 140.932734,1682.13023 C200.183906,1869.0893 413.386406,1907.09578 547.059375,1903.83352 L547.059375,1903.83352 Z" id="Path" fill="#463014"></path>
            <path d="M569.125078,1769.99344 C531.227578,1881.20836 453.819609,1971.22219 453.819609,1971.22219 C453.819609,1971.22219 560.304609,1966.37602 566.1825,1947.53625 C570.534609,1933.64438 662.335781,1718.74172 697.574062,1466.98781 C664.428281,1521.44367 572.372812,1760.4682 569.125078,1769.99344 L569.125078,1769.99344 Z" id="Path" fill="#463014"></path>
            <path d="M1172.44078,1513.575 C1172.44078,1513.575 1293.15914,1698.19453 1381.75617,1829.21555 C1395.45914,1849.48664 1293.15914,1850.88891 1293.15914,1850.88891 L1172.44078,1513.56773 L1172.44078,1513.575 Z M1114.94062,1130.80008 C1114.94062,1130.80008 1151.34141,1221.60586 1171.24922,1269.74062 C1192.90078,1322.07492 1275.40922,1348.10766 1275.40922,1348.10766 C1275.40922,1348.10766 1232.64375,1303.24242 1232.64375,1189.58625 C1232.64375,1141.90922 1171.08938,1122.94594 1171.08938,1122.94594 L1114.94062,1130.79281 L1114.94062,1130.80008 Z" id="Shape" fill="#E78724"></path>
            <path d="M1151.70469,1182.13898 C1151.70469,1182.13898 1226.2718,1270.91039 1364.76914,1221.19172 C1503.26648,1171.48031 1517.44898,993.9375 1517.44898,944.226094 C1517.44898,894.514688 1254.69492,993.9375 1219.17328,1015.24758 C1183.65891,1036.55766 1116.20484,1121.76164 1151.70469,1182.13898 Z M1674.7425,233.611641 C1674.7425,233.611641 1546.91836,208.734141 1461.67805,276.21 C1376.47406,343.671328 1351.60383,396.942891 1351.60383,396.942891 L1495.24523,510.795234 C1495.24523,510.795234 1564.67555,478.608516 1585.97836,386.284219 C1607.27391,293.967187 1593.07688,251.361562 1674.7425,233.611641 L1674.7425,233.611641 Z" id="Shape" fill="#E78724"></path>
            <path d="M1188.99914,925.735078 C1244.02898,847.615078 1334.69672,813.539297 1407.14227,807.893906 C1530.62156,798.237891 1589.21156,841.889766 1589.21156,841.889766 C1589.21156,841.889766 1386.99469,850.448672 1328.69531,926.999297 C1220.1832,1069.4782 1061.94516,1081.05234 1036.63172,1049.7593 C1065.89766,1051.21969 1098.11344,1036.7175 1132.5525,1004.13117 C1154.07328,983.743828 1171.53984,950.532656 1188.99914,925.735078 L1188.99914,925.735078 Z M1530.36727,1201.95961 C1530.36727,1201.95961 1754.70797,1124.82773 1712.09508,1046.72953 C1669.49672,968.602266 1703.37633,926.032969 1703.37633,926.032969 C1703.37633,926.032969 1828.68656,1019.55609 1796.73961,1118.97164 C1777.11516,1179.98836 1744.20187,1224.17063 1563.46219,1308.87328 C1476.76875,1469.90133 1545.55969,1759.74164 1541.46187,1761.10031 C1534.58859,1763.38172 1419.74813,1704.33398 1427.58773,1433.16633 C1429.97086,1349.90227 1436.63344,1236.2243 1530.36727,1201.95961 Z M1236.36375,372.552188 C1330.41,420.345469 1459.31672,486.905859 1459.31672,486.905859 L1408.60266,512.284688 C1413.44156,520.124297 1415.78109,524.803359 1415.78109,524.803359 L1363.71563,548.474766 C1363.71563,548.474766 1236.61078,640.544766 1158.73781,699.745078 C1184.67609,619.786875 1260.8925,494.186016 1260.8925,494.186016 C1260.8925,494.186016 1282.52953,436.475156 1236.36375,372.552188 L1236.36375,372.552188 Z M923.832891,2320.78594 C1212.95391,2320.78594 1310.9018,2173.99125 1310.9018,2173.99125 L1265.73867,2284.03641 C1248.66445,2331.64078 1066.42078,2479.78688 924.276094,2479.78688" id="Shape" fill="#E78724"></path>
            <path d="M1279.24547,2074.80094 C1279.24547,2074.80094 1252.60969,2237.39109 1146.11016,2237.39109 C1055.60953,2237.39109 1028.92289,2100.04898 1028.92289,2071.66219 L1279.24547,2074.80094 Z M1456.51945,1829.58609 C1447.05234,1803.53156 1413.91383,1698.19453 1403.24063,1602.33188 C1390.48219,1487.5132 1395.16125,1319.59008 1395.16125,1319.59008 C1395.16125,1319.59008 1423.56984,1429.6643 1448.40375,1447.45055 C1473.28125,1465.1932 1519.42523,1585.91156 1519.42523,1585.91156 C1519.42523,1585.91156 1544.15016,1765.63406 1555.92047,1826.04047 C1523.35594,1832.55773 1495.96453,1813.36922 1456.51945,1829.58609 L1456.51945,1829.58609 Z M1713.78797,1117.20609 C1713.78797,1117.20609 1653.41062,1095.88148 1635.66797,964.518984 C1617.91805,833.134687 1656.97805,719.507578 1656.97805,719.507578 C1656.97805,719.507578 1653.41062,900.596016 1674.72797,936.117656 C1696.04531,971.624766 1713.78797,982.268906 1738.65094,1028.44195 C1763.48484,1074.60773 1727.97773,1102.99453 1713.78797,1117.20609 L1713.78797,1117.20609 Z" id="Shape" fill="#E78724"></path>
            <path d="M1641.69844,264.686719 L1654.04273,256.883438 C1690.37813,258.111328 1641.69844,264.686719 1641.69844,264.686719 Z" id="Path" fill="#FDC168"></path>
            <path d="M1187.2118,333.652031 C1187.2118,333.652031 1244.03625,324.192187 1272.43031,281.586563 C1300.83891,238.973672 1381.34203,153.740625 1509.63844,152.788828 C1637.92031,151.829766 1764.83625,186.886406 1764.83625,186.886406 L1654.04273,256.890703 C1642.32328,256.505625 1621.83422,256.665469 1587.92555,257.798906 C1448.90508,262.419844 1427.50055,399.943594 1427.50055,399.943594 L937.506797,332.467734" id="Path" fill="#FBA919"></path>
            <path d="M1139.87625,1093.25133 C1139.87625,1093.25133 1206.16781,1159.53562 1307.95195,1138.21828 C1409.75789,1116.92273 1471.31227,1071.94125 1476.04945,993.813984 C1480.77211,915.693984 1454.74664,884.924062 1454.74664,884.924062 C1454.74664,884.924062 1341.09773,920.452969 1286.65641,967.803047 C1232.20781,1015.15312 1191.97078,1090.89 1139.87625,1093.25133 L1139.87625,1093.25133 Z" id="Path" fill="#FFFFFF"></path>
            <path d="M1220.08148,1069.57266 C1220.08148,1069.57266 1277.59617,1095.83063 1341.83156,1074.44062 C1425.9675,1046.38078 1431.5693,958.902656 1431.5693,958.902656 C1431.5693,958.902656 1483.14797,1110.34008 1338.46758,1139.48977 C1222.45008,1162.86328 1153.80445,1095.61992 1153.80445,1095.61992 L1220.08148,1069.56539 L1220.08148,1069.57266 Z" id="Path" fill="#C9C9C9"></path>
            <path d="M1595.89594,499.351875 C1642.79555,460.444453 1607.86969,424.341562 1611.57516,380.1375 C1613.55141,356.618672 1615.41141,334.429453 1623.17109,322.186875 C1666.32891,254.049844 1768.12758,233.371875 1769.17383,233.153906 L1816.96711,223.795781 L1785.32531,186.799219 C1781.2275,182.003906 1651.34719,58.0741406 1450.30734,122.970703 C1309.73203,168.315469 1205.65195,322.085156 1201.77937,328.297266 L1272.25594,361.450312 C1273.10602,360.1425 1355.40375,215.600156 1476.02766,176.707266 C1573.53234,145.247109 1663.39359,175.181484 1701.86508,194.798672 C1660.96687,211.131797 1607.44828,240.884531 1575.2107,291.780234 C1560.00375,315.822187 1557.45352,346.083516 1554.9832,375.393047 C1551.71367,414.191484 1548.63305,450.8175 1520.07187,474.539766 L1595.89594,499.351875 L1595.89594,499.351875 Z M1721.11898,1067.26945 C1721.11898,1067.26945 1662.07125,994.002891 1644.56836,851.451328 C1637.69508,795.295312 1649.8868,684.545391 1669.4168,641.939766 C1665.86391,746.688281 1692.52148,851.451328 1692.52148,851.451328 C1692.52148,851.451328 1710.47484,1045.95937 1721.11898,1067.26945 Z" id="Shape" fill="#463014"></path>
            <path d="M1409.61984,425.35875 C1409.64891,425.206172 1428.57586,342.494297 1481.05547,300.73875 C1555.07039,241.858125 1645.45477,273.180234 1646.29758,273.456328 L1659.45563,232.914141 C1655.06719,231.497344 1551.77906,198.947344 1456.54852,265.871016 C1360.77305,333.1725 1349.30789,394.181953 1348.28344,400.917188 L1409.61984,425.35875 L1409.61984,425.35875 Z M1535.59125,1014.72445 C1535.59125,1014.72445 1566.58641,970.353281 1560.98461,921.557344 C1558.2382,897.457266 1547.07094,872.717813 1527.1268,863.940938 C1490.07938,847.665937 1473.6518,889.66125 1473.6518,889.66125 C1473.6518,889.66125 1525.80445,902.528672 1535.59125,1014.72445 Z" id="Shape" fill="#463014"></path>
            <path d="M1195.26938,1082.36016 C1193.97609,1084.77234 1193.30766,1086.13102 1193.30766,1086.13102 C1193.30766,1086.13102 1289.94773,1158.68555 1389.02906,1085.0557 C1442.09719,1045.60336 1437.08391,948.033281 1420.80891,906.655547 C1378.57383,916.231641 1342.74703,933.4875 1312.77633,953.642344 C1350.6375,919.857188 1383.77602,894.986953 1383.65977,894.412969 L1426.71586,882.235781 L1510.32867,853.572891 C1511.40398,859.952109 1541.89781,1002.92508 1453.82391,1100.34984 C1414.8075,1143.54398 1231.85906,1240.27852 1145.02031,1074.8693 L1195.26937,1082.35289 L1195.26938,1082.36016 Z" id="Path" fill="#463014"></path>
            <path d="M1204.29328,1092.98977 C1149.86648,1175.83242 1012.56797,1128.48961 1014.93656,1040.90977 C1014.93656,1040.90977 1106.67234,1091.55117 1187.74945,998.304141 C1235.07773,943.870078 1386.78398,793.769531 1592.4593,843.648047 C1450.42359,874.890234 1262.36016,1004.6543 1204.29328,1092.98977 L1204.29328,1092.98977 Z" id="Path" fill="#463014"></path>
            <path d="M1611.69141,1326.79758 C1598.58422,1334.36109 1552.38211,1382.1907 1552.38211,1453.71352 C1552.35305,1489.58391 1555.92773,1669.77141 1573.70672,1779.85289 C1546.99828,1797.2032 1528.39828,1800.89414 1501.80609,1818.57867 C1488.49547,1691.08875 1478.91937,1506.30938 1483.40227,1431.7132 C1488.48094,1346.68359 1533.99281,1289.61937 1576.20609,1265.2868 C1589.42953,1257.67969 1603.24875,1250.20336 1617.19148,1242.68344 C1689.50625,1203.60891 1764.29133,1163.18297 1764.29133,1094.1668 C1764.29133,1040.16867 1743.27914,1023.28336 1721.06086,1005.38086 L1718.69227,1003.44094 C1703.94305,991.525313 1687.22484,978.01125 1677.36539,955.829297 C1650.38086,895.175859 1645.95609,740.657813 1677.33633,701.437969 C1692.98648,681.893438 1734.9382,616.168594 1722.88453,572.000859 C1718.26359,555.144609 1707.64125,542.647734 1690.36359,533.798203 C1672.06875,524.425547 1647.40195,519.681094 1616.95172,519.681094 C1557.25008,519.681094 1490.95125,537.866953 1456.79555,548.692734 C1334.63859,587.41125 1187.24086,699.040313 1144.95492,732.331406 C1143.74883,733.261406 1143.05133,733.806328 1142.92055,733.893516 L1115.86336,752.696953 L1132.77047,724.404609 C1133.84578,722.639063 1240.91203,546.549375 1432.39031,481.987031 C1469.64844,469.424766 1542.82781,448.347187 1614.7575,448.347187 C1657.58109,448.347187 1693.88016,455.830781 1722.68109,470.558203 C1757.75953,488.497031 1781.48906,517.116328 1791.37031,553.299141 C1815.55031,641.990625 1736.79094,740.737734 1734.10266,743.898281 C1724.92617,760.289531 1721.03906,879.351328 1742.21836,926.999297 C1745.13914,933.581953 1753.13859,940.041094 1763.28867,948.214922 C1766.45648,950.779687 1769.97305,953.446172 1773.75844,956.294297 C1803.69281,978.883125 1848.92133,1013.00977 1848.92133,1091.67469 C1848.92133,1199.30766 1739.83523,1257.66516 1652.19727,1304.58656 C1637.80406,1312.32445 1624.0575,1319.6482 1611.68414,1326.79758 L1611.69141,1326.79758 Z" id="Path" fill="#463014"></path>
            <path d="M1481.5568,486.687891 C1464.20648,457.298438 1419.82805,400.553906 1317.56438,350.689922 C1203.42867,295.064297 1071.33961,266.830078 924.900938,266.764687 L924.900938,266.728359 L924.334219,266.728359 L924.334219,266.742891 C777.87375,266.815547 645.755625,295.057031 531.65625,350.675391 C429.385313,400.546641 385.035938,457.283906 367.671094,486.673359 L360.216563,496.532812 L447.796406,516.026484 L450.571875,512.517187 L452.039531,509.305781 C453.390938,503.515078 465.132188,472.265625 562.767656,424.653984 C667.152891,373.74375 788.902969,347.928984 924.595781,347.885391 C1060.31766,347.928984 1182.01688,373.74375 1286.38758,424.653984 C1384.03758,472.265625 1395.81516,503.515078 1397.15203,509.298516 L1398.61242,512.517188 L1401.35883,516.026484 L1488.96047,496.532813 L1481.54953,486.687891 L1481.5568,486.687891 Z" id="Path" fill="#463014"></path>
            <path d="M1595.89594,499.351875 C1642.79555,460.444453 1607.86969,424.341562 1611.57516,380.1375 C1613.55141,356.618672 1615.41141,334.429453 1623.17109,322.186875 C1666.32891,254.049844 1768.12758,233.371875 1769.17383,233.153906 L1816.96711,223.795781 L1785.32531,186.799219 C1781.2275,182.003906 1651.34719,58.0741406 1450.30734,122.970703 C1309.73203,168.315469 1205.65195,322.085156 1201.77937,328.297266 L1272.25594,361.450313 C1273.10602,360.1425 1355.40375,215.600156 1476.02766,176.707266 C1573.53234,145.247109 1663.39359,175.181484 1701.86508,194.798672 C1660.96687,211.131797 1607.44828,240.884531 1575.2107,291.780234 C1560.00375,315.822187 1557.45352,346.083516 1554.9832,375.393047 C1551.71367,414.191484 1548.63305,450.8175 1520.07187,474.539766 L1595.89594,499.351875 L1595.89594,499.351875 Z" id="Path" fill="#463014"></path>
            <path d="M1505.64234,477.257109 L1515.50906,469.039688 C1541.7743,447.257344 1544.71688,412.077187 1547.89195,374.67375 C1550.43492,344.579531 1553.05781,313.439063 1569.18023,287.980312 C1598.80945,241.226016 1645.70906,211.931016 1684.34039,194.508047 C1661.21391,184.713984 1617.75094,170.110078 1564.15242,170.110078 C1534.55227,170.110078 1505.66414,174.585703 1478.17828,183.457031 C1366.28766,219.538125 1287.22312,349.941563 1278.27187,365.242969 L1274.91516,370.546875 L1191.52031,331.327031 L1195.76344,324.555469 C1196.7443,322.978828 1301.40563,163.549219 1448.15672,116.228203 C1487.39836,103.549687 1526.84344,97.1486719 1565.38031,97.1486719 C1706.6168,97.1486719 1790.01891,181.35 1790.73094,182.200078 L1830.29227,228.445781 L1770.60516,240.143437 C1769.61703,240.346875 1670.31773,261.119297 1629.20156,326.015859 C1622.38641,336.798047 1620.59906,358.129922 1618.66641,380.776875 C1617.54023,394.247344 1620.36656,407.369062 1623.12023,420.054844 C1629.08531,447.5625 1635.25383,476.014687 1600.45875,504.844687 L1597.43625,507.358594 L1505.64234,477.257109 L1505.64234,477.257109 Z" id="Path" fill="#463014"></path>
            <path d="M1409.61984,425.35875 C1409.64891,425.206172 1428.57586,342.494297 1481.05547,300.73875 C1555.07039,241.858125 1645.45477,273.180234 1646.29758,273.456328 L1659.45563,232.914141 C1655.06719,231.497344 1551.77906,198.947344 1456.54852,265.871016 C1360.77305,333.1725 1349.30789,394.181953 1348.28344,400.917187 L1409.61984,425.35875 L1409.61984,425.35875 Z" id="Path" fill="#463014"></path>
            <path d="M1340.45109,405.443672 L1341.27938,399.878203 C1342.31836,392.837812 1354.31391,329.052891 1452.4725,260.05125 C1492.85484,231.671719 1541.24391,216.660937 1592.40844,216.660937 C1631.21414,216.660937 1658.63461,225.190781 1661.67164,226.171641 L1668.40687,228.351328 L1650.8168,282.429375 L1644.02344,280.177031 C1641.48047,279.319687 1618.65914,271.974141 1587.94734,271.974141 C1548.58945,271.974141 1514.12133,283.526484 1485.51656,306.311484 C1435.32562,346.228828 1416.75469,426.107109 1416.58031,426.891797 L1414.73484,435.014766 L1340.45109,405.443672 Z M1641.69844,264.686719 L1650.43898,237.760312 C1640.12906,235.144687 1619.25492,230.887031 1592.40844,230.887031 C1543.49625,230.887031 1499.16141,244.619062 1460.65359,271.683516 C1380.09234,328.311797 1360.83844,379.476328 1356.4718,396.52875 L1404.81,415.782656 C1411.13109,393.302812 1432.07063,330.651328 1476.6525,295.173281 C1507.41516,270.724453 1545.89391,257.798906 1587.94008,257.798906 C1612.12008,257.798906 1631.59922,261.969375 1641.7057,264.686719 L1641.69844,264.686719 Z M1096.92188,2176.63594 C1060.33945,2137.52508 1038.69516,2095.43531 1033.46391,2082.50977 C1030.47047,2075.14242 1027.07016,2061.10523 1037.79422,2050.07602 C1046.15695,2041.53891 1060.65188,2037.15047 1080.9157,2037.15047 L1112.10703,2037.15047 C1144.61344,2037.15047 1182.61992,2037.15047 1205.22328,2037.17953 L1224.18656,2037.20859 C1250.80781,2037.20859 1263.92953,2044.82297 1270.24336,2051.20945 C1279.42711,2060.50219 1280.85844,2073.42773 1274.53008,2089.61555 C1257.60117,2132.85328 1219.16602,2168.14242 1207.80984,2177.92922 C1192.92984,2190.77484 1171.56891,2198.38922 1150.58578,2198.38922 C1129.07953,2198.38922 1110.0218,2190.65859 1096.92188,2176.63594 L1096.92188,2176.63594 Z M1128.58547,1097.85773 L1204.29328,1092.98977 C1204.29328,1092.98977 1184.95945,1127.12367 1172.41172,1171.26961 C1158.24375,1221.20625 1185.36633,1294.18945 1185.36633,1294.18945 C1185.36633,1294.18945 1084.35234,1179.82852 1128.58547,1097.85773 L1128.58547,1097.85773 Z" id="Shape" fill="#463014"></path>
            <path d="M924.632109,827.409375 C876.352031,827.409375 813.402656,826.087031 766.168828,792.142031 C766.168828,792.142031 828.013828,900.552422 924.552188,900.552422 L924.632109,886.834922 L924.712031,900.552422 C1021.25766,900.552422 1083.08812,792.149297 1083.08812,792.149297 C1035.86156,826.079766 972.868594,827.409375 924.632109,827.409375 Z" id="Path" fill="#E78724"></path>
            <path d="M1057.56398,826.88625 C1009.13859,856.195781 965.886328,866.353125 924.632109,867.254063 C883.363359,866.353125 840.132891,856.195781 791.700234,826.88625 C791.700234,826.88625 862.227656,912.947578 924.276094,913.60875 L924.276094,913.659609 C924.385078,913.659609 924.494063,913.630547 924.624844,913.630547 C924.733828,913.630547 924.842813,913.659609 924.973594,913.659609 L924.973594,913.60875 C987.0075,912.947578 1057.56398,826.88625 1057.56398,826.88625 L1057.56398,826.88625 Z M1223.14031,2398.41187 L1217.74195,2328.21141 C1445.14148,2310.72305 1516.79508,2092.79063 1517.16563,2069.84578 L1587.58407,2069.84578 C1587.61312,2122.90664 1492.72406,2377.69031 1223.14031,2398.41187 Z" id="Shape" fill="#463014"></path>
            <path d="M1298.89172,1941.95625 C1303.12758,1917.60914 1303.54172,1894.51172 1298.40492,1871.82117 C1318.92305,1856.41805 1355.65805,1850.7 1383.24563,1841.75602 C1405.80539,1827.47906 1521.27797,1856.38898 1605.02883,1755.03352 C1709.95898,1628.11758 1687.84969,1552.34437 1687.84969,1552.34437 C1714.77609,1582.23516 1740.83063,1570.84266 1781.86688,1710.22641 C1822.93945,1849.63922 1762.56211,1946.82422 1650.09023,2044.3943 C1596.96398,2090.48016 1521.84469,2109.4725 1457.23148,2116.73812 C1478.87578,2095.01391 1420.26398,2092.83422 1379.88891,2077.72172 C1383.11484,2045.09906 1377.69469,2013.43547 1353.37664,1987.94039 C1338.74367,1972.56633 1319.84578,1963.38258 1300.28672,1956.05883 C1299.18234,1953.53039 1298.23781,1951.19086 1297.22789,1948.76414 C1297.87453,1946.54812 1298.48484,1944.31031 1298.89898,1941.95625 L1298.89172,1941.95625 Z" id="Path" fill="#FFFFFF"></path>
            <path d="M1380.38297,2076.87164 C1382.75156,2070.02016 1384.48078,2063.04516 1386.21727,2056.0193 C1388.11359,2048.35406 1397.41359,2026.61531 1385.93391,2051.43469 C1388.88375,2045.07727 1390.80188,2038.53094 1392.22594,2031.93375 C1574.37516,2031.70125 1732.83844,1906.63805 1702.19203,1643.71687 C1726.03781,1612.06055 1759.45242,1707.55266 1759.45242,1707.55266 C1759.45242,1707.55266 1850.64328,1972.32656 1615.13531,2074.94625 C1536.66656,2109.16734 1467.3307,2133.70336 1450.96125,2123.80031 C1416.84914,2130.72445 1386.07922,2106.96586 1374.57047,2091.3375 C1376.72109,2086.54219 1378.74094,2081.73234 1380.38297,2076.87164 L1380.38297,2076.87164 Z" id="Path" fill="#C9C9C9"></path>
            <path d="M1302.15398,1903.83352 C1301.89969,1881.6443 1297.33688,1860.14531 1286.64188,1838.73352 C1285.87898,1837.25859 1285.01438,1835.8418 1284.21516,1834.4032 C1354.29938,1833.80016 1435.02773,1827.09398 1503.76781,1799.57906 C1579.31578,1769.35406 1673.82703,1665.96422 1690.07297,1544.48297 C1690.07297,1544.48297 1832.36297,1654.28109 1790.55656,1889.30227 C1751.27859,2109.98109 1566.63,2181.92531 1356.02859,2194.09523 C1355.91234,2192.67117 1379.7218,2143.51195 1372.19461,2113.41047 C1491.75047,2122.10016 1625.48883,2075.89805 1690.08023,1969.67461 C1749.14977,1872.44602 1732.58414,1706.45555 1708.28789,1682.13023 C1649.05852,1869.0893 1435.83422,1907.09578 1302.15398,1903.83352 L1302.15398,1903.83352 Z" id="Path" fill="#463014"></path>
            <path d="M1387.19813,1959.19031 C1362.03727,1931.98781 1315.77703,1899.56859 1209.11039,1899.56859 L924.988125,1899.39422 L924.290625,1899.39422 C842.407031,1899.45234 640.132031,1899.56859 640.132031,1899.56859 C533.487188,1899.56859 487.226953,1931.99508 462.051563,1959.19031 C425.381953,1998.7807 419.627578,2053.84687 444.999141,2122.68141 C512.409609,2305.89867 607.146094,2492.04398 924.276094,2492.30555 L924.276094,2492.33461 C924.392344,2492.33461 924.494063,2492.30555 924.624844,2492.30555 C924.733828,2492.30555 924.842813,2492.33461 924.973594,2492.33461 L924.973594,2492.30555 C1242.07453,2492.02945 1336.81102,2305.89867 1404.24328,2122.68141 C1429.61484,2053.84687 1423.84594,1998.7807 1387.19813,1959.19031 Z M1337.8282,2109.83578 C1305.71414,2201.84039 1219.39125,2424.5318 924.617578,2424.91687 C629.807578,2424.5318 543.521016,2201.84766 511.399688,2109.83578 C493.627969,2058.7875 494.979375,2021.01352 515.555625,1997.55281 C529.614609,1981.51031 561.903047,1962.36539 635.489297,1962.36539 L712.366875,1962.33633 C769.082344,1962.28547 840.292734,1962.22734 924.624844,1962.19102 C1008.92789,1962.22734 1080.17461,1962.28547 1136.87555,1962.33633 L1213.72406,1962.36539 C1287.33211,1962.36539 1319.61328,1981.50305 1333.67953,1997.55281 C1354.23398,2021.03531 1355.59992,2058.7875 1337.82094,2109.83578 L1337.8282,2109.83578 Z" id="Shape" fill="#463014"></path>
            <path d="M1280.10281,1769.99344 C1318.00031,1881.20836 1395.40828,1971.22219 1395.40828,1971.22219 C1395.40828,1971.22219 1288.92328,1966.37602 1283.03813,1947.53625 C1278.71508,1933.64438 1186.91391,1718.74172 1151.67563,1466.98781 C1184.79234,1521.44367 1276.84781,1760.4682 1280.10281,1769.99344 L1280.10281,1769.99344 Z" id="Path" fill="#463014"></path>
        </g>
    </g>
</svg>